#!OML:ASF F:\VICON\USERDATA\INSTALL\rory3\rory3.ASF
:FULLY-SPECIFIED
:DEGREES
1040
root -2.94376 19.5042 2.78092 -175.751 -76.5051 176.242
lowerback 6.94027 -0.0716692 -4.09994
upperback -5.0671 -0.557451 0.611605
thorax -9.2493 -0.00716447 3.04301
lowerneck -21.8169 -3.92739 -14.5818
upperneck -9.04532 -2.64394 11.8836
head 1.021 -0.962725 5.91688
rclavicle -2.80783e-015 -4.12478e-015
rhumerus 90.267 -32.1278 -35.8064
rradius 32.0504
rwrist 9.06087
rhand -30.8311 -0.575587
rfingers 7.12502
rthumb -4.12001 -30.5155
lclavicle -2.80783e-015 -4.12478e-015
lhumerus 88.5985 36.4776 40.1084
lradius 25.6792
lwrist 3.91468
lhand -9.53015 28.9988
lfingers 7.12502
lthumb 16.4361 58.3225
rfemur -7.94161 6.78974 8.73626
rtibia 32.8051
rfoot 1.95781 -10.2219
rtoes 6.13556
lfemur -5.16942 -8.09614 -10.3346
ltibia 24.2166
lfoot 8.83183 5.48553
ltoes -18.211
1041
root -2.964 19.4609 2.83307 -175.62 -76.3157 176.097
lowerback 7.01264 -0.142774 -4.3152
upperback -5.03271 -0.681374 0.578621
thorax -9.24403 -0.0549927 3.14789
lowerneck -21.4372 -3.73225 -13.964
upperneck -9.25744 -2.57378 11.4744
head 0.878289 -0.966436 5.68989
rclavicle -3.45264e-014 7.45443e-015
rhumerus 90.3443 -32.4357 -36.0376
rradius 32.2453
rwrist 9.4738
rhand -31.1268 -0.835415
rfingers 7.12502
rthumb -4.40559 -30.7696
lclavicle -3.45264e-014 7.45443e-015
lhumerus 88.7133 36.754 40.0262
lradius 26.1108
lwrist 4.70248
lhand -9.92375 28.4809
lfingers 7.12502
lthumb 16.0571 57.8355
rfemur -8.2314 7.04985 8.79282
rtibia 33.1064
rfoot 3.06465 -9.56257
rtoes 5.42801
lfemur -5.2986 -8.48882 -10.0749
ltibia 24.049
lfoot 8.41579 5.96364
ltoes -18.6235
1042
root -2.98625 19.405 2.88629 -175.363 -76.145 175.899
lowerback 6.95243 -0.224885 -4.57052
upperback -4.98716 -0.816653 0.565028
thorax -9.1459 -0.108085 3.29546
lowerneck -21.2005 -3.62114 -13.8292
upperneck -9.36069 -2.48555 11.4166
head 0.801997 -0.934332 5.65733
rclavicle 3.99402e-014 6.38596e-015
rhumerus 90.5673 -32.6543 -36.401
rradius 32.4115
rwrist 9.84158
rhand -31.6262 -0.830593
rfingers 7.12502
rthumb -4.88785 -30.7542
lclavicle 3.99402e-014 6.38596e-015
lhumerus 89.0424 36.9758 40.1651
lradius 26.4375
lwrist 5.44582
lhand -10.3351 28.2128
lfingers 7.12502
lthumb 15.661 57.599
rfemur -8.55359 7.35648 8.83562
rtibia 33.4099
rfoot 3.90113 -8.87514
rtoes 4.86505
lfemur -5.47678 -9.10638 -9.82349
ltibia 23.8871
lfoot 8.06092 7.01283
ltoes -17.9471
1043
root -3.00985 19.3327 2.9393 -175.081 -75.9299 175.583
lowerback 6.99066 -0.26426 -4.78652
upperback -5.02236 -0.905726 0.474686
thorax -9.19953 -0.139561 3.33473
lowerneck -20.8418 -3.53807 -13.8223
upperneck -9.25904 -2.4085 11.4062
head 0.775277 -0.898949 5.65784
rclavicle -2.17809e-015 -5.70885e-015
rhumerus 90.6038 -32.7451 -36.676
rradius 32.5428
rwrist 9.993
rhand -31.9519 -0.640327
rfingers 7.12502
rthumb -5.20231 -30.5565
lclavicle -2.17809e-015 -5.70885e-015
lhumerus 89.8943 36.6676 40.9858
lradius 26.5135
lwrist 5.23425
lhand -10.52 27.9148
lfingers 7.12502
lthumb 15.4829 57.3149
rfemur -8.76283 7.81659 8.87782
rtibia 33.71
rfoot 4.64868 -8.19197
rtoes 4.81398
lfemur -5.54849 -9.75848 -9.6439
ltibia 23.7556
lfoot 7.50273 8.138
ltoes -16.9248
1044
root -3.03254 19.2497 2.99533 -175.217 -75.7642 175.656
lowerback 7.088 -0.351377 -4.84528
upperback -5.0318 -1.03769 0.444259
thorax -9.25522 -0.199333 3.35654
lowerneck -20.1127 -3.31577 -13.7308
upperneck -9.63853 -2.21198 11.1649
head 0.529069 -0.824949 5.58471
rclavicle 3.59055e-014 1.84621e-014
rhumerus 90.6035 -32.8839 -36.7065
rradius 32.6298
rwrist 9.87282
rhand -32.4785 -0.379048
rfingers 7.12502
rthumb -5.71074 -30.2821
lclavicle 3.59055e-014 1.84621e-014
lhumerus 91.0064 36.2542 42.1769
lradius 26.3833
lwrist 4.40844
lhand -10.6143 27.3372
lfingers 7.12502
lthumb 15.392 56.7443
rfemur -8.92093 8.02509 8.98713
rtibia 33.9629
rfoot 5.54839 -7.35518
rtoes 4.58334
lfemur -5.66843 -10.0789 -9.35121
ltibia 23.7356
lfoot 6.78833 8.67697
ltoes -16.5948
